<?xml version="1.0" encoding="UTF-8"?>
<!DOCTYPE svg PUBLIC "-//W3C//DTD SVG 1.1//EN" "http://www.w3.org/Graphics/SVG/1.1/DTD/svg11.dtd">
<!-- Creator: CorelDRAW 2020 (64 Bit) -->
<svg xmlns="http://www.w3.org/2000/svg" xml:space="preserve" width="274.461mm" height="180.269mm" version="1.1" style="shape-rendering:geometricPrecision; text-rendering:geometricPrecision; image-rendering:optimizeQuality; fill-rule:evenodd; clip-rule:evenodd"
viewBox="0 0 27446.1 18026.94"
 xmlns:xlink="http://www.w3.org/1999/xlink"
 xmlns:xodm="http://www.corel.com/coreldraw/odm/2003">
 <defs>
  <style type="text/css">
   <![CDATA[
    .fil0 {fill:#464747;fill-rule:nonzero}
    .fil1 {fill:url(#id0)}
    .fil2 {fill:url(#id1)}
    .fil3 {fill:url(#id2)}
    .fil4 {fill:url(#id3)}
   ]]>
  </style>
  <linearGradient id="id0" gradientUnits="userSpaceOnUse" x1="11208.72" y1="6859.7" x2="16393.43" y2="6859.7">
   <stop offset="0" style="stop-opacity:1; stop-color:#F5BF2F"/>
   <stop offset="0.0117647" style="stop-opacity:1; stop-color:#F5BF2F"/>
   <stop offset="1" style="stop-opacity:1; stop-color:#F47D35"/>
  </linearGradient>
  <linearGradient id="id1" gradientUnits="userSpaceOnUse" xlink:href="#id0" x1="14256.07" y1="6859.7" x2="18192.17" y2="6859.7">
  </linearGradient>
  <linearGradient id="id2" gradientUnits="userSpaceOnUse" xlink:href="#id0" x1="9812.02" y1="6859.7" x2="12943.98" y2="6859.7">
  </linearGradient>
  <linearGradient id="id3" gradientUnits="userSpaceOnUse" xlink:href="#id0" x1="7166.83" y1="6859.7" x2="9455.1" y2="6859.7">
  </linearGradient>
 </defs>
 <g id="Camada_x0020_1">
  <metadata id="CorelCorpID_0Corel-Layer"/>
  <g id="_2851115004848">
   <path class="fil0" d="M5934.91 11938.05c155.86,0 293.67,-41.91 415.59,-123.83 121.86,-81.91 205.74,-197.82 253.72,-343.67l-407.61 0c-53.93,101.92 -137.81,153.83 -255.68,153.83 -117.88,0 -209.79,-35.96 -275.75,-109.89 -67.92,-73.88 -101.86,-171.81 -101.86,-293.67 0,-121.86 33.94,-219.79 101.86,-293.67 65.96,-73.93 157.87,-109.89 275.75,-109.89 117.87,0 201.75,51.91 255.68,153.83l407.61 0c-47.98,-145.85 -131.86,-261.7 -253.72,-343.61 -121.92,-81.92 -259.73,-123.89 -415.59,-123.89 -201.8,0 -371.59,67.93 -509.46,201.76 -139.78,135.9 -209.73,307.71 -209.73,515.47 0,207.76 69.95,379.63 209.73,513.45 137.87,135.85 307.66,203.78 509.46,203.78zm1526.37 -313.67c-113.88,0 -203.77,-35.96 -269.73,-109.89 -67.92,-73.88 -101.86,-171.81 -101.86,-293.67 0,-121.86 33.94,-219.79 101.86,-293.67 65.96,-73.93 155.85,-109.89 269.73,-109.89 111.86,0 201.81,35.96 269.74,109.89 65.9,73.88 99.89,171.81 99.89,293.67 0,121.86 -33.99,219.79 -99.89,293.67 -67.93,73.93 -157.88,109.89 -269.74,109.89zm0 315.69c201.81,0 371.6,-67.92 509.47,-203.77 137.87,-135.85 207.76,-307.72 207.76,-515.48 0,-207.76 -67.92,-379.57 -205.79,-515.47 -137.82,-133.83 -307.66,-201.76 -509.47,-201.76 -201.75,0 -373.56,67.93 -511.43,201.76 -139.84,135.9 -209.79,307.71 -209.79,515.47 0,207.76 69.95,379.63 209.79,515.48 137.87,135.85 307.66,203.77 509.46,203.77zm2133.77 -1416.53l-401.6 967.01 -403.56 -967.01 -391.59 0 0 1402.54 341.65 0 0 -791.16 325.63 791.16 253.78 0 325.63 -791.16 0 791.16 341.65 0 0 -1402.54 -391.59 0zm1624.24 125.9c-89.89,-83.93 -217.77,-125.9 -379.57,-125.9l-553.4 0 0 1402.54 341.64 0 0 -545.42 211.76 0c97.87,0 181.75,-13.99 253.72,-43.93 69.89,-27.98 123.82,-63.94 159.78,-109.9 67.93,-87.92 101.92,-179.84 101.92,-273.72 0,-117.87 -45.96,-219.79 -135.85,-303.67zm-591.33 133.83l211.76 0c49.94,0 91.86,16.01 121.86,47.98 29.94,31.97 45.9,71.91 45.9,121.86 0,49.95 -13.93,91.92 -43.94,121.86 -29.94,30 -71.85,45.96 -123.82,45.96l-211.76 0 0 -337.66zm2189.67 1142.81l-485.53 -1406.53 -415.53 0 -487.5 1406.53 363.62 0 77.92 -235.74 503.46 0 77.92 235.74 365.64 0zm-695.26 -994.94l165.79 499.47 -331.64 0 165.85 -499.47zm1776.1 473.51l-571.38 -885.1 -341.64 0 0 1406.53 341.64 0 0 -885.04 571.38 885.04 341.65 0 0 -1406.53 -341.65 0 0 885.1zm1348.61 69.89l485.47 -951 -387.6 0 -267.71 633.35 -269.73 -633.35 -387.61 0 485.53 951 0 451.54 341.65 0 0 -451.54zm2177.58 -69.89l-571.37 -885.1 -341.6 0 0 1406.53 341.6 0 0 -885.04 571.37 885.04 341.65 0 0 -1406.53 -341.65 0 0 885.1zm1898.02 521.43l-485.53 -1406.53 -415.53 0 -487.49 1406.53 363.61 0 77.93 -235.74 503.45 0 77.92 235.74 365.64 0zm-695.26 -994.94l165.8 499.47 -331.65 0 165.85 -499.47zm2059.83 -407.6l-401.6 967.01 -403.56 -967.01 -391.59 0 0 1402.54 341.65 0 0 -791.16 325.63 791.16 253.78 0 325.63 -791.16 0 791.16 341.65 0 0 -1402.54 -391.59 0zm691.27 -3.99l0 1406.53 849.03 0 0 -259.73 -507.39 0 0 -325.63 447.5 0 0 -259.74 -447.5 0 0 -301.7 507.39 0 0 -259.73 -849.03 0z"/>
   <path class="fil0" d="M8015.98 13765.22c94.61,0 178.49,-21.29 251.75,-63.93 73.26,-42.59 127.87,-105.23 165.18,-186.47l-113.21 0c-27.98,54.61 -69.27,95.9 -122.53,125.23 -53.32,30.62 -113.21,45.28 -181.19,45.28 -107.87,0 -195.74,-35.96 -266.37,-106.58 -70.56,-70.56 -105.17,-165.12 -105.17,-281.02 0,-115.85 34.61,-210.46 105.17,-281.03 70.63,-70.62 158.5,-106.58 266.37,-106.58 67.98,0 127.87,14.67 181.19,43.99 53.26,29.27 94.55,70.57 122.53,125.18l113.21 0c-37.31,-81.24 -91.92,-143.83 -165.18,-186.47 -73.26,-42.65 -157.14,-63.94 -251.75,-63.94 -131.86,0 -242.38,43.94 -331.65,131.86 -90.51,89.28 -135.79,201.14 -135.79,336.99 0,135.85 45.28,247.76 135.79,335.63 89.27,87.93 199.79,131.86 331.65,131.86zm1038.93 -78.54c-107.87,0 -195.74,-36.01 -266.37,-107.93 -70.56,-70.56 -106.57,-165.12 -106.57,-281.02 0,-115.85 36.01,-210.46 106.57,-281.03 70.63,-70.62 158.5,-106.58 266.37,-106.58 107.92,0 195.79,35.96 266.41,106.58 70.57,70.57 105.23,165.18 105.23,281.03 0,115.9 -34.66,210.46 -105.23,281.02 -70.62,71.92 -159.84,107.93 -266.41,107.93zm1.34 79.89c131.87,0 242.43,-43.93 331.65,-133.21 89.28,-87.87 134.56,-199.78 134.56,-335.63 0,-135.85 -45.28,-247.71 -134.56,-336.99 -89.22,-87.92 -199.78,-131.86 -331.65,-131.86 -131.86,0 -243.72,43.94 -332.99,131.86 -90.57,89.28 -135.85,201.14 -135.85,336.99 0,135.85 45.28,247.76 135.85,335.63 89.27,89.28 201.13,133.21 332.99,133.21zm1441.15 -928.36l-367.61 784.53 -368.95 -784.53 -86.58 0 0 919.03 93.27 0 0 -704.58 334.28 704.58 54.61 0 334.35 -707.22 0 707.22 93.2 0 0 -919.03 -86.57 0zm567.38 0l-281.02 0 0 919.03 93.26 0 0 -384.9 187.76 0c103.89,0 182.49,-23.99 235.75,-73.27 51.97,-49.27 78.6,-113.2 78.6,-193.15 0,-79.89 -26.63,-145.18 -79.89,-194.45 -53.32,-49.27 -131.87,-73.26 -234.46,-73.26zm-187.76 75.9l187.76 0c146.53,0 219.79,63.94 219.79,190.52 0,127.81 -73.26,191.75 -219.79,191.75l-187.76 0 0 -382.27zm1397.15 843.13l-336.98 -919.03 -95.9 0 -338.34 919.03 93.27 0 78.6 -214.45 428.84 0 77.25 214.45 93.26 0zm-384.9 -803.13l186.47 514.13 -374.29 0 187.82 -514.13zm1164.04 653.97l-515.42 -769.87 -93.26 0 0 919.03 93.26 0 0 -769.87 515.42 769.87 93.27 0 0 -919.03 -93.27 0 0 769.87zm600.65 -213.1l293.05 -556.77 -101.24 0 -239.73 471.48 -239.73 -471.48 -99.84 0 294.29 556.77 0 362.26 93.2 0 0 -362.26zm933.7 -442.22c35.96,-29.32 83.94,-43.93 142.54,-43.93 58.6,0 105.23,13.31 138.54,41.24 33.26,27.98 51.92,61.29 55.91,98.6l105.23 0c-10.68,-66.63 -41.3,-119.9 -90.57,-159.84 -49.27,-39.95 -117.2,-59.95 -203.77,-59.95 -86.58,0 -157.2,22.64 -209.12,69.27 -53.26,46.64 -79.94,105.24 -79.94,175.8 0,70.62 17.36,125.23 53.31,162.54 35.96,37.25 78.55,62.58 129.17,74.55 49.27,13.32 99.89,25.34 150.51,34.61 49.27,9.33 91.92,26.69 127.87,51.97 35.96,25.34 53.26,63.93 53.26,113.21 0,50.62 -18.65,93.26 -57.25,126.52 -38.65,33.32 -90.56,50.62 -155.85,50.62 -65.23,0 -114.55,-14.66 -147.81,-42.59 -33.32,-27.97 -50.62,-62.64 -54.61,-105.23l-98.6 0c0,69.28 27.97,123.89 85.28,165.13 57.25,41.29 130.51,61.29 222.43,61.29 90.56,0 162.48,-26.63 214.45,-78.6 51.91,-51.91 78.54,-113.21 78.54,-183.77 0,-46.63 -9.33,-86.58 -27.98,-118.55 -19.94,-31.97 -43.93,-55.96 -74.55,-71.91 -30.62,-14.67 -63.94,-27.98 -99.9,-37.31 -35.95,-9.32 -73.26,-18.65 -109.21,-26.63 -35.96,-8.03 -69.28,-17.36 -99.9,-29.33 -30.62,-10.67 -54.61,-27.97 -73.26,-50.62 -20,-22.64 -29.33,-53.26 -29.33,-89.21 0,-55.96 18.66,-98.6 54.61,-127.88zm639.36 804.48l427.55 0 0 -71.91 -334.29 0 0 -847.12 -93.26 0 0 919.03zm974.94 -70.56c-107.87,0 -195.74,-36.01 -266.36,-107.93 -70.57,-70.56 -106.58,-165.12 -106.58,-281.02 0,-115.85 36.01,-210.46 106.58,-281.03 70.62,-70.62 158.49,-106.58 266.36,-106.58 107.93,0 195.8,35.96 266.42,106.58 70.56,70.57 105.23,165.18 105.23,281.03 0,115.9 -34.67,210.46 -105.23,281.02 -70.62,71.92 -159.84,107.93 -266.42,107.93zm1.35 79.89c131.86,0 242.43,-43.93 331.64,-133.21 89.28,-87.87 134.56,-199.78 134.56,-335.63 0,-135.85 -45.28,-247.71 -134.56,-336.99 -89.21,-87.92 -199.78,-131.86 -331.64,-131.86 -131.86,0 -243.72,43.94 -333,131.86 -90.56,89.28 -135.85,201.14 -135.85,336.99 0,135.85 45.29,247.76 135.85,335.63 89.28,89.28 201.14,133.21 333,133.21zm1033.59 -1.35c127.87,0 235.74,-39.94 322.32,-118.54 86.58,-78.55 137.2,-181.14 149.17,-309.01l0 -74.55 -510.14 0 0 74.55 412.88 0c-9.32,107.93 -47.92,191.81 -113.21,254.4 -65.22,62.64 -151.8,93.26 -257.03,93.26 -106.58,0 -194.45,-35.96 -265.07,-106.58 -70.57,-70.56 -105.23,-165.12 -105.23,-281.02 0,-115.85 34.66,-210.46 105.23,-281.03 70.62,-70.62 158.49,-106.58 266.36,-106.58 67.98,0 127.87,14.67 181.19,43.99 53.26,29.27 94.56,70.57 122.53,125.18l113.21 0c-37.3,-81.24 -91.91,-143.83 -165.17,-186.47 -73.27,-42.65 -157.15,-63.94 -251.76,-63.94 -131.86,0 -242.37,43.94 -331.64,131.86 -90.57,89.28 -135.85,201.14 -135.85,336.99 0,135.85 45.28,247.76 135.85,335.63 89.27,87.93 198.49,131.86 326.36,131.86zm1365.24 -7.98l-336.98 -919.03 -95.91 0 -338.33 919.03 93.26 0 78.6 -214.45 428.84 0 77.26 214.45 93.26 0zm-384.91 -803.13l186.47 514.13 -374.29 0 187.82 -514.13zm1163.99 653.97l-515.36 -769.87 -93.26 0 0 919.03 93.26 0 0 -769.87 515.36 769.87 93.27 0 0 -919.03 -93.27 0 0 769.87z"/>
   <path class="fil1" d="M16224.15 6859.7l-169.45 0 338.73 0 -169.28 0zm-169.45 0c0,622.95 -251.92,1185.23 -659.97,1593.73 -408.51,408.06 -970.78,659.98 -1593.74,659.98 -622.78,0 -1185.23,-251.92 -1593.56,-659.98 -408.06,-408.5 -660.2,-970.78 -660.2,-1593.73 0,-622.96 252.14,-1185.23 660.2,-1593.57 408.33,-408.05 970.78,-659.97 1593.56,-660.2 622.96,0.23 1185.23,252.15 1593.74,660.2 408.05,408.34 659.97,970.61 659.97,1593.57zm338.73 0c-0.17,-1431.82 -1160.68,-2592.27 -2592.44,-2592.27 -1431.81,0 -2592.27,1160.45 -2592.27,2592.27 0,1431.76 1160.46,2592.27 2592.27,2592.43 1431.76,-0.16 2592.27,-1160.67 2592.44,-2592.43z"/>
   <path class="fil2" d="M18022.84 6859.7l-169.28 0 338.56 0 -169.28 0zm-169.28 0c0,450.47 -182.14,856.78 -477.27,1152.3 -295.52,295.13 -701.61,477.11 -1152.14,477.11 -450.47,0 -856.78,-181.98 -1152.3,-477.11 -295.13,-295.52 -477.28,-701.83 -477.28,-1152.3 0,-450.53 182.15,-856.84 477.28,-1152.14 295.52,-295.13 701.83,-477.27 1152.3,-477.27 450.53,0 856.84,182.14 1152.14,477.27 295.13,295.3 477.27,701.61 477.27,1152.14zm338.56 0c0,-1086.97 -881,-1967.97 -1967.97,-1967.97 -1087.08,0 -1968.08,881 -1968.08,1967.97 0,1086.91 881,1967.91 1968.08,1968.13 1086.97,-0.22 1967.97,-881.22 1967.97,-1968.13z"/>
   <path class="fil3" d="M12774.7 6859.7l-169.27 0 338.55 0 -169.28 0zm-169.27 0c-0.17,339.51 -137.15,645.31 -359.52,867.91 -222.59,222.37 -528.39,359.34 -867.91,359.51 -339.51,-0.17 -645.37,-137.14 -867.91,-359.51 -222.42,-222.6 -359.34,-528.4 -359.57,-867.91 0.23,-339.51 137.15,-645.37 359.57,-867.91 222.77,-222.43 528.4,-359.35 867.91,-359.57 339.52,0.22 645.32,137.14 867.91,359.57 222.37,222.54 359.35,528.4 359.52,867.91zm338.55 0c-0.22,-864.99 -701.04,-1565.81 -1565.98,-1565.98 -864.98,0.17 -1565.98,700.99 -1565.98,1565.98 0,864.93 701,1565.98 1565.98,1565.98 864.94,0 1565.76,-701.05 1565.98,-1565.98z"/>
   <path class="fil4" d="M9285.76 6859.7l-169.22 0 338.5 0 -169.28 0zm-169.22 0c0,222.93 -89.78,423.33 -235.86,569.63 -146.3,146.08 -346.64,235.86 -569.63,235.86 -222.99,0 -423.34,-89.78 -569.64,-235.86 -146.07,-146.3 -235.85,-346.7 -235.85,-569.63 0,-222.99 89.78,-423.39 235.85,-569.64 146.3,-146.07 346.65,-235.85 569.64,-235.85 222.99,0 423.33,89.78 569.63,235.85 146.08,146.25 235.86,346.65 235.86,569.64zm338.5 0c0,-631.89 -511.94,-1144.05 -1143.99,-1144.22 -632.06,0.17 -1143.99,512.33 -1143.99,1144.22 0,631.83 511.93,1143.99 1143.99,1144.21 632.05,-0.22 1143.99,-512.38 1143.99,-1144.21z"/>
  </g>
 </g>
</svg>
